<?xml version="1.0" encoding="utf-8"?>
<!-- Generator: Adobe Illustrator 19.0.0, SVG Export Plug-In . SVG Version: 6.00 Build 0)  -->
<svg version="1.1" xmlns="http://www.w3.org/2000/svg" xmlns:xlink="http://www.w3.org/1999/xlink" x="0px" y="0px"
	 viewBox="0 0 1000 1000" style="enable-background:new 0 0 1000 1000;" xml:space="preserve">
<style type="text/css">
	.st0{fill:#FFFFFF;}
</style>
<g id="char__x27_t_x27_">
</g>
<g id="char__x27_h_x27_">
	<g id="XMLID_1_">
		<g id="XMLID_5_">
			<path id="XMLID_6_" class="st0" d="M236.4,464.3V199.1H165v-65.8l74.9,0.6L238.7,0h77.8v133.9h84.1v65.2h-84.1v267
				c0,59,18.5,92.5,74,92.5c16.7,0,55.4-7.7,55.4-7.7v52.6c0,0-49.1,9.6-70.9,9.6C272.8,613.1,236.4,560.4,236.4,464.3z"/>
		</g>
		<path id="XMLID_8_" class="st0" d="M537.9,539.6c0,0,112.7-14.8,167.3-14.8c88,0,129.8,72.4,129.8,193.1V1000h-76.6l1.7-282.1
			c0-81.9-9-141.3-67.4-141.2c-16.4,0-154.8,15.5-154.8,15.5"/>
		<path id="XMLID_2_" class="st0" d="M530.5,284.8V1000H453V284.8H530.5"/>
	</g>
</g>
</svg>
